# xmcd CD database file
#
# Track frame offsets:
#	150
#	14775
#	27405
#	38545
#	51425
#	62710
#	76587
#	88650
#	100372
#	111037
#	125357
#	139010
#	151715
#	162550
#
# Disc length: 2333 seconds
#
# Revision: 0
# Processed by: cddbd v1.5PL3 Copyright (c) Steve Scherf et al.
# Submitted via: CDex 1.51
#
DISCID=b0091b0e
DTITLE=Ray Charles - Let's Have A Ball
DYEAR=1997
DGENRE=Blues
TTITLE0=Some Day Blues (Blues Is My Middle Name)
TTITLE1=Rocking Chair Blues
TTITLE2=A Sentimental Blues
TTITLE3=Can Anyone Ask For More
TTITLE4=Lets Have A Ball
TTITLE5=This Love Of Mine
TTITLE6=Can't See You Darling
TTITLE7=If I Give You My Love
TTITLE8=Sitting On Top Of The World
TTITLE9=Kiss Me Baby
TTITLE10=I'm Going To Drown Myself
TTITLE11=The Snow Is Falling
TTITLE12=I Wonder Who's Kissing Her Now
TTITLE13=C.C. Rider
EXTD=YEAR: 1997
EXTT0=
EXTT1=
EXTT2=
EXTT3=
EXTT4=
EXTT5=
EXTT6=
EXTT7=
EXTT8=
EXTT9=
EXTT10=
EXTT11=
EXTT12=
EXTT13=
PLAYORDER=
